<svg width="37" height="24" viewBox="0 0 37 24" fill="none" xmlns="http://www.w3.org/2000/svg">
<path d="M29.6544 20.2789C28.7372 21.9536 26.5726 23.2151 23.9275 23.5422C23.9275 23.5422 23.926 23.5422 23.9244 23.5422C23.7945 23.5516 23.6677 23.5563 23.5519 23.5563H0.912109L2.17048 22.298L14.2002 10.2667L16.1723 8.29462C17.4698 6.99556 18.9989 5.98134 20.6658 5.29268C22.3295 4.60245 24.1279 4.23777 25.9654 4.23777L25.992 4.26438L9.97585 20.2789H29.6544ZM7.55145 4.23934L13.8073 10.622L16.7279 7.11763C14.8841 5.27389 12.3846 4.23934 9.77864 4.23934H7.55145ZM27.2284 3.74162L11.2154 19.7546L11.2421 19.7812C13.078 19.7812 14.8779 19.4165 16.5416 18.7263C18.2069 18.0376 19.7377 17.0234 21.0352 15.7244L23.0072 13.7523L35.0369 1.72102L36.2953 0.462646H13.6524C13.5366 0.462646 13.4098 0.467341 13.2799 0.476732C13.2783 0.476732 13.2767 0.476732 13.2767 0.476732C10.6332 0.803847 8.46706 2.06535 7.54988 3.73849V3.74005H27.2284V3.74162ZM29.6544 19.7812L23.3985 13.3986L20.478 16.9029C22.3217 18.7467 24.8212 19.7812 27.4272 19.7812H29.6544Z" fill="url(#paint0_linear_36_90)"/>
<defs>
<linearGradient id="paint0_linear_36_90" x1="0.911796" y1="12.0102" x2="36.2939" y2="12.0102" gradientUnits="userSpaceOnUse">
<stop stop-color="#BAFF00"/>
<stop offset="1" stop-color="#06FFCC"/>
</linearGradient>
</defs>
</svg>
