<svg width="36" height="42" viewBox="0 0 36 42" fill="none" xmlns="http://www.w3.org/2000/svg">
<path d="M19.8081 22.5801L5.5881 41.2101L1.55811 41.7601L16.1881 22.5801H19.8081Z" fill="#ACF10E"/>
<path d="M16.109 22.4892L16.139 22.4492H20.0591L5.63904 41.3492L1.26904 41.9392L16.109 22.4892ZM19.549 22.7192H16.229L1.83905 41.5792L5.53903 41.0792L19.549 22.7192Z" fill="#ACF10E"/>
<path d="M27.1489 22.5801L12.9189 41.2301L8.87891 41.7801L23.5289 22.5801H27.1489Z" fill="#ACF10E"/>
<path d="M23.4591 22.4892L23.4891 22.4492H27.4091L12.9691 41.3692L8.59912 41.9592L23.4591 22.4892ZM26.8891 22.7192H23.5691L9.16913 41.5992L12.8691 41.0992L26.8891 22.7192Z" fill="#ACF10E"/>
<path d="M34.758 22.5801L20.508 41.2501L16.468 41.8001L31.138 22.5801H34.758Z" fill="#ACF10E"/>
<path d="M31.059 22.4892L31.089 22.4492H35.0089L20.5789 41.3592L20.549 41.3892L16.179 41.9792L31.059 22.4892ZM34.499 22.7192H31.179L16.7589 41.6192L20.459 41.1192L34.499 22.7192Z" fill="#ACF10E"/>
<path d="M18.5391 19.3888L4.31906 0.768749L0.289062 0.21875L14.9191 19.3888H18.5391Z" fill="#ACF10E"/>
<path d="M0 0.0390625L4.37 0.629063L18.79 19.5291H14.87L14.84 19.4891L0 0.0390625ZM4.27002 0.899063L0.570007 0.399063L14.96 19.2491H18.28L4.27002 0.899063Z" fill="#ACF10E"/>
<path d="M25.8789 19.3892L11.6489 0.749218L7.60889 0.199219L22.2589 19.3892H25.8789Z" fill="#ACF10E"/>
<path d="M7.33008 0.0195312L11.7001 0.609529L26.1401 19.5295H22.2201L22.1901 19.4895L7.33008 0.0195312ZM11.6001 0.87953L7.90005 0.37953L22.3001 19.2595H25.6201L11.6001 0.87953Z" fill="#ACF10E"/>
<path d="M33.489 19.3897L19.239 0.719688L15.199 0.179688L29.869 19.3897H33.489Z" fill="#ACF10E"/>
<path d="M14.9199 0L19.2899 0.589998L19.3199 0.619999L33.7499 19.53H29.8299L29.7999 19.49L14.9199 0ZM19.1899 0.859999L15.4899 0.359999L29.9099 19.26H33.2299L19.1899 0.859999Z" fill="#ACF10E"/>
</svg>
