<svg width="14" height="18" viewBox="0 0 14 18" fill="none" xmlns="http://www.w3.org/2000/svg">
<path d="M7.92111 9.63605L2.23457 17.0861L0.622986 17.3061L6.47348 9.63605H7.92111Z" fill="url(#paint0_linear_102_81)"/>
<path d="M6.44192 9.59969L6.45392 9.58369H8.02152L2.255 17.1418L0.507446 17.3777L6.44192 9.59969ZM7.81757 9.69167H6.48991L0.735391 17.2337L2.215 17.0338L7.81757 9.69167Z" fill="url(#paint1_linear_102_81)"/>
<path d="M10.8568 9.63605L5.16625 17.0941L3.55066 17.3141L9.40916 9.63605H10.8568Z" fill="url(#paint2_linear_102_81)"/>
<path d="M9.3812 9.59969L9.3932 9.58369H10.9608L5.18627 17.1498L3.43872 17.3857L9.3812 9.59969ZM10.7528 9.69167H9.42518L3.66667 17.2417L5.14629 17.0418L10.7528 9.69167Z" fill="url(#paint3_linear_102_81)"/>
<path d="M13.8996 9.63605L8.20109 17.1021L6.58551 17.3221L12.452 9.63605H13.8996Z" fill="url(#paint4_linear_102_81)"/>
<path d="M12.4204 9.59969L12.4324 9.58369H14L8.22952 17.1457L8.21752 17.1577L6.46997 17.3937L12.4204 9.59969ZM13.7961 9.69167H12.4684L6.70191 17.2497L8.18153 17.0498L13.7961 9.69167Z" fill="url(#paint5_linear_102_81)"/>
<path d="M7.41366 8.35985L1.72712 0.91376L0.11554 0.693817L5.96604 8.35985H7.41366Z" fill="url(#paint6_linear_102_81)"/>
<path d="M0 0.621948L1.74755 0.857888L7.51407 8.41595H5.94647L5.93447 8.39995L0 0.621948ZM1.70757 0.96586L0.227944 0.765911L5.98247 8.30397H7.31012L1.70757 0.96586Z" fill="url(#paint7_linear_102_81)"/>
<path d="M10.349 8.36002L4.65843 0.905933L3.04285 0.685989L8.90134 8.36002H10.349Z" fill="url(#paint8_linear_102_81)"/>
<path d="M2.93127 0.61412L4.67882 0.850059L10.4533 8.41611H8.88574L8.87374 8.40012L2.93127 0.61412ZM4.63883 0.958032L3.15921 0.758083L8.91774 8.30814H10.2454L4.63883 0.958032Z" fill="url(#paint9_linear_102_81)"/>
<path d="M13.3922 8.36022L7.69365 0.894137L6.07806 0.678192L11.9446 8.36022H13.3922Z" fill="url(#paint10_linear_102_81)"/>
<path d="M5.96649 0.606323L7.71404 0.842262L7.72604 0.854259L13.4965 8.41632H11.929L11.917 8.40032L5.96649 0.606323ZM7.67405 0.950234L6.19444 0.750286L11.9609 8.30834H13.2886L7.67405 0.950234Z" fill="url(#paint11_linear_102_81)"/>
<defs>
<linearGradient id="paint0_linear_102_81" x1="0.622986" y1="13.4711" x2="7.92111" y2="13.4711" gradientUnits="userSpaceOnUse">
<stop offset="0.25" stop-color="#BAFF00"/>
<stop offset="0.75" stop-color="#06FFCC"/>
</linearGradient>
<linearGradient id="paint1_linear_102_81" x1="0.507446" y1="13.4807" x2="8.02152" y2="13.4807" gradientUnits="userSpaceOnUse">
<stop offset="0.25" stop-color="#BAFF00"/>
<stop offset="0.75" stop-color="#06FFCC"/>
</linearGradient>
<linearGradient id="paint2_linear_102_81" x1="3.55066" y1="13.4751" x2="10.8568" y2="13.4751" gradientUnits="userSpaceOnUse">
<stop offset="0.25" stop-color="#BAFF00"/>
<stop offset="0.75" stop-color="#06FFCC"/>
</linearGradient>
<linearGradient id="paint3_linear_102_81" x1="3.43872" y1="13.4847" x2="10.9608" y2="13.4847" gradientUnits="userSpaceOnUse">
<stop offset="0.25" stop-color="#BAFF00"/>
<stop offset="0.75" stop-color="#06FFCC"/>
</linearGradient>
<linearGradient id="paint4_linear_102_81" x1="6.58551" y1="13.4791" x2="13.8996" y2="13.4791" gradientUnits="userSpaceOnUse">
<stop offset="0.25" stop-color="#BAFF00"/>
<stop offset="0.75" stop-color="#06FFCC"/>
</linearGradient>
<linearGradient id="paint5_linear_102_81" x1="6.46997" y1="13.4887" x2="14" y2="13.4887" gradientUnits="userSpaceOnUse">
<stop offset="0.25" stop-color="#BAFF00"/>
<stop offset="0.75" stop-color="#06FFCC"/>
</linearGradient>
<linearGradient id="paint6_linear_102_81" x1="0.11554" y1="4.52683" x2="7.41366" y2="4.52683" gradientUnits="userSpaceOnUse">
<stop offset="0.25" stop-color="#BAFF00"/>
<stop offset="0.75" stop-color="#06FFCC"/>
</linearGradient>
<linearGradient id="paint7_linear_102_81" x1="0" y1="4.51895" x2="7.51407" y2="4.51895" gradientUnits="userSpaceOnUse">
<stop offset="0.25" stop-color="#BAFF00"/>
<stop offset="0.75" stop-color="#06FFCC"/>
</linearGradient>
<linearGradient id="paint8_linear_102_81" x1="3.04285" y1="4.523" x2="10.349" y2="4.523" gradientUnits="userSpaceOnUse">
<stop offset="0.25" stop-color="#BAFF00"/>
<stop offset="0.75" stop-color="#06FFCC"/>
</linearGradient>
<linearGradient id="paint9_linear_102_81" x1="2.93127" y1="4.51512" x2="10.4533" y2="4.51512" gradientUnits="userSpaceOnUse">
<stop offset="0.25" stop-color="#BAFF00"/>
<stop offset="0.75" stop-color="#06FFCC"/>
</linearGradient>
<linearGradient id="paint10_linear_102_81" x1="6.07806" y1="4.5192" x2="13.3922" y2="4.5192" gradientUnits="userSpaceOnUse">
<stop offset="0.25" stop-color="#BAFF00"/>
<stop offset="0.75" stop-color="#06FFCC"/>
</linearGradient>
<linearGradient id="paint11_linear_102_81" x1="5.96649" y1="4.51132" x2="13.4965" y2="4.51132" gradientUnits="userSpaceOnUse">
<stop offset="0.25" stop-color="#BAFF00"/>
<stop offset="0.75" stop-color="#06FFCC"/>
</linearGradient>
</defs>
</svg>
