<svg width="26" height="19" viewBox="0 0 26 19" fill="none" xmlns="http://www.w3.org/2000/svg">
<path d="M11.2551 15.0487C11.6458 15.0487 11.9973 15.3612 11.9973 15.7909C11.9973 16.1815 11.6848 16.5331 11.2551 16.5331C10.8645 16.5331 10.5129 16.2206 10.5129 15.7909C10.5129 15.3612 10.8645 15.0487 11.2551 15.0487ZM22.7396 10.5175C22.3488 10.5175 21.9974 10.205 21.9974 9.77533C21.9974 9.38471 22.3099 9.03314 22.7396 9.03314C23.1302 9.03314 23.4818 9.34564 23.4818 9.77533C23.4818 10.166 23.1302 10.5175 22.7396 10.5175ZM22.7396 7.50971C21.4896 7.50971 20.4738 8.52533 20.4738 9.77533C20.4738 10.0097 20.513 10.2441 20.591 10.4785L13.1301 14.4628C12.7005 13.8378 11.9973 13.4862 11.2551 13.4862C10.3958 13.4862 9.61451 13.994 9.22389 14.7362L2.50514 11.2206C1.80201 10.83 1.25514 9.69721 1.33327 8.60346C1.37233 8.05658 1.56764 7.62689 1.84108 7.47064C2.03639 7.35346 2.2317 7.39252 2.50514 7.50971L2.5442 7.54877C4.34108 8.48627 10.1614 11.5331 10.3958 11.6503C10.7864 11.8065 10.9817 11.8848 11.6458 11.5723L23.6771 5.32221C23.8724 5.24408 24.0677 5.08783 24.0677 4.81439C24.0677 4.46283 23.716 4.30658 23.716 4.30658C23.0129 3.99408 21.9582 3.48627 20.9427 3.01752C18.7552 2.00189 16.2552 0.830018 15.1613 0.244077C14.2239 -0.263732 13.4426 0.165959 13.3254 0.244077L13.052 0.361268C8.09108 2.86127 1.52858 6.10346 1.13795 6.33783C0.473892 6.72846 0.0442035 7.54877 0.00514098 8.56439C-0.072984 10.166 0.747328 11.8456 1.9192 12.4315L9.02858 16.1034C9.18483 17.1973 10.1614 18.0565 11.2551 18.0565C12.5051 18.0565 13.4817 17.08 13.5208 15.83L21.3332 11.6112C21.7238 11.9237 22.2318 12.08 22.7396 12.08C23.9896 12.08 25.0052 11.0644 25.0052 9.81439C25.0052 8.52533 23.9896 7.50971 22.7396 7.50971Z" fill="white"/>
</svg>
