<svg width="25" height="25" viewBox="0 0 25 25" fill="none" xmlns="http://www.w3.org/2000/svg">
<g clip-path="url(#clip0_1_454)">
<mask id="mask0_1_454" style="mask-type:luminance" maskUnits="userSpaceOnUse" x="0" y="0" width="25" height="25">
<path d="M25 0H0V25H25V0Z" fill="white"/>
</mask>
<g mask="url(#mask0_1_454)">
<path d="M11.2494 18.5155C11.64 18.5155 11.9916 18.828 11.9916 19.2577C11.9916 19.6483 11.6791 19.9999 11.2494 19.9999C10.8588 19.9999 10.5072 19.6874 10.5072 19.2577C10.5072 18.828 10.8588 18.5155 11.2494 18.5155ZM22.7338 13.9843C22.3431 13.9843 21.9916 13.6718 21.9916 13.2421C21.9916 12.8515 22.3041 12.4999 22.7338 12.4999C23.1244 12.4999 23.476 12.8124 23.476 13.2421C23.476 13.6328 23.1244 13.9843 22.7338 13.9843ZM22.7338 10.9765C21.4838 10.9765 20.4681 11.9921 20.4681 13.2421C20.4681 13.4765 20.5072 13.7109 20.5853 13.9453L13.1244 17.9296C12.6947 17.3046 11.9916 16.953 11.2494 16.953C10.39 16.953 9.60877 17.4608 9.21815 18.203L2.4994 14.6874C1.79627 14.2968 1.2494 13.164 1.32753 12.0703C1.36659 11.5234 1.5619 11.0937 1.83535 10.9374C2.03065 10.8203 2.22596 10.8593 2.4994 10.9765L2.53846 11.0156C4.33535 11.9531 10.1557 14.9999 10.39 15.1171C10.7807 15.2733 10.976 15.3515 11.64 15.039L23.6713 8.78901C23.8666 8.71087 24.0619 8.55462 24.0619 8.28118C24.0619 7.92962 23.7103 7.77337 23.7103 7.77337C23.0072 7.46087 21.9525 6.95306 20.9369 6.48431C18.7494 5.46868 16.2494 4.29681 15.1556 3.71087C14.2182 3.20306 13.4369 3.63276 13.3197 3.71087L13.0463 3.82806C8.08535 6.32806 1.52285 9.57026 1.13222 9.80462C0.468154 10.1953 0.0384662 11.0156 -0.000596329 12.0312C-0.0787213 13.6328 0.741591 15.3124 1.91346 15.8983L9.02285 19.5702C9.1791 20.6641 10.1557 21.5233 11.2494 21.5233C12.4994 21.5233 13.476 20.5468 13.515 19.2968L21.3275 15.078C21.7181 15.3905 22.226 15.5468 22.7338 15.5468C23.9838 15.5468 24.9994 14.5312 24.9994 13.2812C24.9994 11.9921 23.9838 10.9765 22.7338 10.9765Z" fill="white"/>
</g>
</g>
<defs>
<clipPath id="clip0_1_454">
<rect width="25" height="25" fill="white"/>
</clipPath>
</defs>
</svg>
