<svg width="1555" height="556" viewBox="0 0 1555 556" fill="none" xmlns="http://www.w3.org/2000/svg">
<g filter="url(#filter0_f_119_2)">
<path d="M777.5 150C430.941 150 150 207.308 150 278C150 348.692 430.941 406 777.5 406C1124.06 406 1405 348.692 1405 278C1405 207.308 1124.06 150 777.5 150Z" fill="url(#paint0_radial_119_2)"/>
</g>
<g filter="url(#filter1_f_119_2)">
<path d="M773.5 160C522.487 160 319 194.698 319 237.5C319 280.302 522.487 315 773.5 315C1024.51 315 1228 280.302 1228 237.5C1228 194.698 1024.51 160 773.5 160Z" fill="url(#paint1_radial_119_2)"/>
</g>
<g filter="url(#filter2_f_119_2)">
<path d="M773.5 160C550.101 160 369 194.698 369 237.5C369 280.302 550.101 315 773.5 315C996.899 315 1178 280.302 1178 237.5C1178 194.698 996.899 160 773.5 160Z" fill="url(#paint2_radial_119_2)"/>
</g>
<path fill-rule="evenodd" clip-rule="evenodd" d="M831 147.485L776.888 225L725 146L777.257 199.262L831 147.485ZM813.707 151.795L777.456 185.574L742.156 150.768L777.618 174.309L813.707 151.795Z" fill="#ACF10E"/>
<defs>
<filter id="filter0_f_119_2" x="0" y="0" width="1555" height="556" filterUnits="userSpaceOnUse" color-interpolation-filters="sRGB">
<feFlood flood-opacity="0" result="BackgroundImageFix"/>
<feBlend mode="normal" in="SourceGraphic" in2="BackgroundImageFix" result="shape"/>
<feGaussianBlur stdDeviation="75" result="effect1_foregroundBlur_119_2"/>
</filter>
<filter id="filter1_f_119_2" x="261" y="102" width="1025" height="271" filterUnits="userSpaceOnUse" color-interpolation-filters="sRGB">
<feFlood flood-opacity="0" result="BackgroundImageFix"/>
<feBlend mode="normal" in="SourceGraphic" in2="BackgroundImageFix" result="shape"/>
<feGaussianBlur stdDeviation="29" result="effect1_foregroundBlur_119_2"/>
</filter>
<filter id="filter2_f_119_2" x="311" y="102" width="925" height="271" filterUnits="userSpaceOnUse" color-interpolation-filters="sRGB">
<feFlood flood-opacity="0" result="BackgroundImageFix"/>
<feBlend mode="normal" in="SourceGraphic" in2="BackgroundImageFix" result="shape"/>
<feGaussianBlur stdDeviation="29" result="effect1_foregroundBlur_119_2"/>
</filter>
<radialGradient id="paint0_radial_119_2" cx="0" cy="0" r="1" gradientUnits="userSpaceOnUse" gradientTransform="translate(791.977 232.357) rotate(179.9) scale(568.687 116.008)">
<stop stop-color="#ACF10E"/>
<stop offset="1" stop-color="#ACF10E" stop-opacity="0"/>
</radialGradient>
<radialGradient id="paint1_radial_119_2" cx="0" cy="0" r="1" gradientUnits="userSpaceOnUse" gradientTransform="translate(783.986 209.864) rotate(-45.2218) scale(611.92 5.36347)">
<stop stop-color="#ACF10E" stop-opacity="0"/>
<stop offset="1" stop-color="#06FFCC" stop-opacity="0.17"/>
</radialGradient>
<radialGradient id="paint2_radial_119_2" cx="0" cy="0" r="1" gradientUnits="userSpaceOnUse" gradientTransform="translate(773.5 237.5) rotate(-90) scale(77.5 404.5)">
<stop stop-color="white"/>
<stop offset="1" stop-color="white" stop-opacity="0"/>
</radialGradient>
</defs>
</svg>
