<svg width="2693" height="368" viewBox="0 0 2693 368" fill="none" xmlns="http://www.w3.org/2000/svg">
<path d="M2188.08 157.868L2693 0.539459V1.30185L2188.08 158.631L1986.76 221.365L1906 246.53L1516.18 368V367.851H1505.69L1505.23 368V367.851H1494.71L1494.3 368V367.851H1483.73L1483.35 368V367.851H1472.75L1472.4 368V367.851H1461.77L1461.45 368V367.851H1450.79L1450.51 368V367.851H1439.81L1439.56 368V367.851H1428.83L1428.61 368V367.851H1417.85L1417.66 368V367.851H1406.87L1406.72 368V367.851H1395.9L1395.77 367.981V367.851H1384.91L1384.82 367.981V367.851H1373.96L1373.9 367.963V367.851H1363.01H1362.98H1330.05H1330.03H1319.13V367.963L1319.07 367.851H1308.21V367.981L1308.12 367.851H1297.19V367.981L1297.06 367.851H1286.25V368L1286.09 367.851H1275.31V368L1275.12 367.851H1264.37V368L1264.14 367.851H1253.43V368L1253.17 367.851H1242.49V368L1242.2 367.851H1231.54V368L1231.22 367.851H1220.59V368L1220.24 367.851H1209.65V368L1209.27 367.851H1198.7V368L1198.29 367.851H1187.76V368L1187.31 367.851H1176.8V368L914.599 286.294L856.041 268.049L786.989 246.53L706.234 221.365L612.585 192.184L504.911 158.705L0 1.37631V0.613678L504.916 157.943H556.924L444.299 120.429H405.963V119.666H442.018L86.856 1.37631V0.613678L444.286 119.647H504.377L173.712 1.3577V0.595062L506.495 119.629H566.754L456.446 77.0186H405.94V76.256H454.482L260.577 1.33908V0.576447L456.437 76.256H525.824L411.326 28.1776H405.895V27.4149H409.515L347.419 1.37631V0.613678L411.317 27.4521H490.968L434.271 1.41354V0.650909L492.611 27.4894H572.425L521.122 1.45078V0.706787L573.905 27.545H653.872L607.973 1.50641V0.762634L655.198 27.6009H735.302L694.802 1.56226L694.829 0.818237L736.501 27.6567H816.777L781.672 1.6181L781.708 0.874115L817.818 27.7126H898.252L868.541 1.67395L868.582 0.929962L899.135 27.7682H979.722L955.411 1.72958L955.461 0.985809L980.451 27.824H1061.19L1042.28 1.78543L1042.34 1.06006L1061.77 27.8799H1142.66L1129.14 1.84128L1129.22 1.15314L1143.09 27.9544H1224.1L1215.96 1.78543L1216.07 1.19037L1224.38 27.9544H1305.52L1302.81 1.63672L1302.97 1.33908L1305.73 27.9544H1386.93L1389.68 1.33908L1389.85 1.63672L1387.13 27.9544H1468.42L1476.73 1.19037L1476.86 1.13452L1468.71 27.3777H1549.75L1563.62 0.576447L1563.7 1.26462L1550.18 27.3032H1631.07L1650.5 0.483582L1650.56 1.20898L1631.65 27.2476H1712.39L1737.38 0.409119L1737.43 1.15314L1713.12 27.1917H1793.71L1824.26 0.353271L1824.3 1.09729L1794.59 27.1359H1875.02L1911.13 0.297638L1911.17 1.04144L1876.06 27.08H1956.34L1998.01 0.241791L1998.04 0.985809L1957.54 27.0244H2037.64L2084.86 0.185944L2084.89 0.929962L2038.99 26.9686H2118.96L2171.74 0.130096V0.874115L2120.44 26.9127H2200.25L2258.59 0.0744629V0.836853L2201.89 26.8755H2281.54L2345.44 0.0372314V0.799622L2283.34 26.8383H2286.96V27.6009H2281.53L2167.03 75.6793H2236.42L2432.27 0V0.762634L2238.37 75.6793H2287.04V76.4419H2236.53L2126.22 119.052H2186.48L2519.26 0.0186157V0.78125L2188.59 119.071H2248.68L2606.11 0.0372314V0.799622L2250.95 119.09H2287.01V119.852H2248.67L2136.04 157.366L2188.08 157.868ZM2133.78 158.631L2035.33 191.421H2080.39L2185.63 158.631H2133.78ZM1547.46 357.492H1536.78L1524.04 361.732H1533.85L1547.46 357.492ZM2030.8 192.184H1985.73L1906.27 220.603H1945.45L2030.8 192.184ZM1947.73 220.603H1986.75L2077.97 192.184H2033.06L1947.73 220.603ZM1352.98 356.729L1353.43 352.47H1339.55L1340 356.729H1352.98ZM1340.05 357.492L1340.51 361.732H1352.47L1352.92 357.492H1340.05ZM1510.7 314.361H1489.84L1476.65 324.162H1495.48L1510.7 314.361ZM1496.67 324.162H1515.33L1532.58 314.361H1511.9L1496.67 324.162ZM1488.8 314.361H1467.81L1456.64 324.162H1475.65L1488.8 314.361ZM1466.9 314.361H1445.74L1436.58 324.162H1455.74L1466.9 314.361ZM1247.24 313.598H1268.72L1260.02 301.602H1236.06L1247.24 313.598ZM1235.33 301.602H1211.52L1225.18 313.598H1246.5L1235.33 301.602ZM1407.8 301.602H1383.55L1379.82 313.598H1401.59L1407.8 301.602ZM1402.03 313.598H1423.65L1432.35 301.602H1408.24L1402.03 313.598ZM1383.26 301.602H1358.88L1357.64 313.598H1379.53L1383.26 301.602ZM1358.69 301.602H1334.27L1335.51 313.598H1357.44L1358.69 301.602ZM1334.07 301.602H1309.7L1313.42 313.598H1335.31L1334.07 301.602ZM1309.4 301.602H1285.15L1291.36 313.598H1313.13L1309.4 301.602ZM1284.71 301.602H1260.61L1269.3 313.598H1290.93L1284.71 301.602ZM1259.47 300.839L1248.93 286.294H1221.78L1235.33 300.839H1259.47ZM1260.05 300.839H1284.32L1276.79 286.294H1249.51L1260.05 300.839ZM1284.75 300.839H1309.16L1304.64 286.294H1277.21L1284.75 300.839ZM1309.46 300.839H1333.99L1332.48 286.294H1304.95L1309.46 300.839ZM1334.19 300.839H1358.76L1360.27 286.294H1332.66L1334.19 300.839ZM1358.97 300.839H1383.49L1388.02 286.294H1360.48L1358.97 300.839ZM1383.79 300.839H1408.2L1415.73 286.294H1388.31L1383.79 300.839ZM1408.63 300.839H1432.9L1443.44 286.294H1416.16L1408.63 300.839ZM1433.48 300.839H1457.6L1471.17 286.294H1444.02L1433.48 300.839ZM1432.93 301.602L1424.23 313.598H1445.71L1456.89 301.602H1432.93ZM1446.44 313.598H1467.77L1481.43 301.602H1457.62L1446.44 313.598ZM1445 314.361H1423.68L1416.58 324.162H1435.87L1445 314.361ZM1423.1 314.361H1401.63L1396.56 324.162H1416.02L1423.1 314.361ZM1401.2 314.361H1379.59L1376.55 324.162H1396.13L1401.2 314.361ZM1379.29 314.361H1357.57L1356.55 324.162H1376.25L1379.29 314.361ZM1357.36 314.361H1335.59L1336.6 324.162H1356.35L1357.36 314.361ZM1335.39 314.361H1313.66L1316.71 324.162H1336.4L1335.39 314.361ZM1313.36 314.361H1291.76L1296.84 324.162H1316.42L1313.36 314.361ZM1291.32 314.361H1269.85L1276.96 324.162H1296.39L1291.32 314.361ZM1269.27 314.361H1247.95L1257.08 324.162H1276.37L1269.27 314.361ZM1247.22 314.361H1226.05L1237.21 324.162H1256.35L1247.22 314.361ZM1225.17 314.361H1204.15L1217.35 324.162H1236.33L1225.17 314.361ZM1203.11 314.361H1182.24L1197.46 324.162H1216.29L1203.11 314.361ZM1181.06 314.361H1160.35L1177.61 324.162H1196.27L1181.06 314.361ZM1179.88 313.598L1161.25 301.602H1137.89L1159.01 313.598H1179.88ZM1181.07 313.598H1202.09L1185.94 301.602H1162.44L1181.07 313.598ZM1203.13 313.598H1224.3L1210.64 301.602H1186.98L1203.13 313.598ZM1209.77 300.839L1193.21 286.294H1166.4L1185.98 300.839H1209.77ZM1210.68 300.839H1234.66L1221.11 286.294H1194.13L1210.68 300.839ZM1220.39 285.532L1204.09 268.049H1173.32L1193.23 285.532H1220.39ZM1221.12 285.532H1248.4L1235.73 268.049H1204.82L1221.12 285.532ZM1248.98 285.532H1276.42L1267.37 268.049H1236.31L1248.98 285.532ZM1276.86 285.532H1304.43L1299 268.049H1267.77L1276.86 285.532ZM1304.73 285.532H1332.43L1330.62 268.049H1299.3L1304.73 285.532ZM1332.63 285.532H1360.37L1362.18 268.049H1330.82L1332.63 285.532ZM1360.57 285.532H1388.26L1393.7 268.049H1362.36L1360.57 285.532ZM1388.56 285.532H1416.14L1425.19 268.049H1393.99L1388.56 285.532ZM1416.58 285.532H1443.99L1456.66 268.049H1425.61L1416.58 285.532ZM1444.6 285.532H1471.88L1488.17 268.049H1457.24L1444.6 285.532ZM1472.61 285.532H1499.77L1519.68 268.049H1488.91L1472.61 285.532ZM1471.91 286.294L1458.35 300.839H1482.29L1498.85 286.294H1471.91ZM1483.22 300.839H1507.04L1526.61 286.294H1499.74L1483.22 300.839ZM1482.36 301.602L1468.65 313.598H1489.82L1505.97 301.602H1482.36ZM1490.9 313.598H1511.92L1530.56 301.602H1507.01L1490.9 313.598ZM1513.11 313.598H1533.98L1555.09 301.602H1531.71L1513.11 313.598ZM1535.33 313.598H1556.03L1579.64 301.602H1556.4L1535.33 313.598ZM1533.99 314.361L1516.68 324.162H1535.2L1554.49 314.361H1533.99ZM1515.4 324.925L1501.37 332.885H1518.04L1533.71 324.925H1515.4ZM1514.04 324.925H1495.49L1483.13 332.885H1499.99L1514.04 324.925ZM1494.33 324.925H1475.62L1464.91 332.885H1481.93L1494.33 324.925ZM1474.62 324.925H1455.76L1446.7 332.885H1463.9L1474.62 324.925ZM1454.9 324.925H1435.89L1428.47 332.885H1445.8L1454.9 324.925ZM1435.19 324.925H1416.03L1410.26 332.885H1427.74L1435.19 324.925ZM1415.48 324.925H1396.17L1392.04 332.885H1409.69L1415.48 324.925ZM1395.76 324.925H1376.34L1373.87 332.885H1391.64L1395.76 324.925ZM1376.04 324.925H1356.48L1355.65 332.885H1373.54L1376.04 324.925ZM1356.3 324.925H1336.71L1337.54 332.885H1355.48L1356.3 324.925ZM1336.51 324.925H1316.97L1319.45 332.885H1337.34L1336.51 324.925ZM1316.67 324.925H1297.25L1301.38 332.885H1319.15L1316.67 324.925ZM1296.82 324.925H1277.5L1283.27 332.885H1300.92L1296.82 324.925ZM1276.96 324.925H1257.82L1265.24 332.885H1282.71L1276.96 324.925ZM1257.09 324.925H1238.11L1247.16 332.885H1264.49L1257.09 324.925ZM1237.23 324.925H1218.4L1229.12 332.885H1246.31L1237.23 324.925ZM1217.36 324.925H1198.69L1211.05 332.885H1228.08L1217.36 324.925ZM1197.49 324.925H1178.98L1193.01 332.885H1209.85L1197.49 324.925ZM1177.63 324.925H1159.26L1174.93 332.885H1191.64L1177.63 324.925ZM1176.27 324.162L1159.02 314.361H1138.47L1157.75 324.162H1176.27ZM1157.68 313.598L1136.56 301.602H1113.37L1136.98 313.598H1157.68ZM1135.23 300.839L1109.63 286.294H1083.26L1111.88 300.839H1135.23ZM1136.59 300.839H1160.06L1137.48 286.294H1110.96L1136.59 300.839ZM1161.28 300.839H1184.94L1165.36 286.294H1138.69L1161.28 300.839ZM1164.34 285.532L1140.81 268.049H1110.36L1137.51 285.532H1164.34ZM1165.38 285.532H1192.36L1172.45 268.049H1141.83L1165.38 285.532ZM1171.59 267.286L1147.95 246.53H1112.89L1140.83 267.286H1171.59ZM1172.49 267.286H1203.41L1184.07 246.53H1148.85L1172.49 267.286ZM1204.14 267.286H1235.2L1220.16 246.53H1184.8L1204.14 267.286ZM1235.79 267.286H1267.01L1256.27 246.53H1220.71L1235.79 267.286ZM1267.44 267.286H1298.79L1292.34 246.53H1256.69L1267.44 267.286ZM1299.09 267.286H1330.56L1328.41 246.53H1292.66L1299.09 267.286ZM1330.77 267.286H1362.29L1364.44 246.53H1328.62L1330.77 267.286ZM1362.49 267.286H1393.96L1400.38 246.53H1364.62L1362.49 267.286ZM1394.26 267.286H1425.61L1436.36 246.53H1400.66L1394.26 267.286ZM1426.05 267.286H1457.28L1472.32 246.53H1436.74L1426.05 267.286ZM1457.84 267.286H1488.91L1508.25 246.53H1472.84L1457.84 267.286ZM1489.64 267.286H1520.55L1544.2 246.53H1508.93L1489.64 267.286ZM1521.44 267.286H1552.21L1580.15 246.53H1545.03L1521.44 267.286ZM1520.57 268.049L1500.66 285.532H1527.65L1551.18 268.049H1520.57ZM1528.68 285.532H1555.51L1582.66 268.049H1552.17L1528.68 285.532ZM1527.66 286.294L1508.09 300.839H1531.74L1554.33 286.294H1527.66ZM1532.94 300.839H1556.44L1582.04 286.294H1555.48L1532.94 300.839ZM1557.79 300.839H1581.14L1609.75 286.294H1583.34L1557.79 300.839ZM1582.64 300.839H1605.83L1637.46 286.294H1611.2L1582.64 300.839ZM1581.15 301.602L1557.49 313.598H1578.05L1604.13 301.602H1581.15ZM1556.05 314.361L1536.76 324.162H1555.13L1576.45 314.361H1556.05ZM1535.24 324.925L1519.58 332.885H1536.14L1553.45 324.925H1535.24ZM1537.8 332.885H1554.2L1573.16 324.925H1555.09L1537.8 332.885ZM1536.14 333.648L1522.03 340.139H1536.93L1552.39 333.648H1536.14ZM1534.48 333.648H1518.06L1505.29 340.139H1520.35L1534.48 333.648ZM1516.58 333.648H1500L1488.58 340.139H1503.79L1516.58 333.648ZM1498.67 333.648H1481.95L1471.88 340.139H1487.27L1498.67 333.648ZM1480.77 333.648H1463.88L1455.14 340.139H1470.66L1480.77 333.648ZM1462.86 333.648H1445.82L1438.43 340.139H1454.11L1462.86 333.648ZM1444.96 333.648H1427.76L1421.71 340.139H1437.55L1444.96 333.648ZM1427.05 333.648H1409.71L1405 340.139H1420.99L1427.05 333.648ZM1409.15 333.648H1391.67L1388.31 340.139H1404.44L1409.15 333.648ZM1391.23 333.648H1373.62L1371.6 340.139H1387.89L1391.23 333.648ZM1373.32 333.648H1355.57L1354.9 340.139H1371.29L1373.32 333.648ZM1355.39 333.648H1337.6L1338.27 340.139H1354.71L1355.39 333.648ZM1337.4 333.648H1319.67L1321.69 340.139H1338.08L1337.4 333.648ZM1319.37 333.648H1301.72L1305.08 340.139H1321.35L1319.37 333.648ZM1301.32 333.648H1283.84L1288.55 340.139H1304.68L1301.32 333.648ZM1283.27 333.648H1265.92L1271.97 340.139H1287.95L1283.27 333.648ZM1265.21 333.648H1248.01L1255.41 340.139H1271.25L1265.21 333.648ZM1247.15 333.648H1230.13L1238.86 340.139H1254.54L1247.15 333.648ZM1229.08 333.648H1212.22L1222.31 340.139H1237.82L1229.08 333.648ZM1211.03 333.648H1194.31L1205.74 340.139H1221.11L1211.03 333.648ZM1192.97 333.648H1176.41L1189.18 340.139H1204.39L1192.97 333.648ZM1174.91 333.648H1158.51L1172.62 340.139H1187.67L1174.91 333.648ZM1173.42 332.885L1157.75 324.925H1139.54L1156.86 332.885H1173.42ZM1156.25 324.162L1136.97 314.361H1116.58L1137.89 324.162H1156.25ZM1135.48 313.598L1111.88 301.602H1088.84L1114.93 313.598H1135.48ZM1110.38 300.839L1081.77 286.294H1055.56L1087.19 300.839H1110.38ZM1080.27 285.532L1045.88 268.049H1015.88L1053.89 285.532H1080.27ZM1081.78 285.532H1108.3L1077.52 268.049H1047.38L1081.78 285.532ZM1109.64 285.532H1136.31L1109.16 268.049H1078.87L1109.64 285.532ZM1107.98 267.286L1075.75 246.53H1041L1077.53 267.286H1107.98ZM1109.18 267.286H1139.78L1111.84 246.53H1076.94L1109.18 267.286ZM1110.83 245.767L1077.98 221.365H1037.87L1075.77 245.767H1110.83ZM1111.86 245.767H1147.08L1119.29 221.365H1079.01L1111.86 245.767ZM1147.96 245.767H1183.33L1160.59 221.365H1120.17L1147.96 245.767ZM1184.06 245.767H1219.59L1201.9 221.365H1161.32L1184.06 245.767ZM1220.16 245.767H1255.84L1243.2 221.365H1202.47L1220.16 245.767ZM1256.27 245.767H1292.08L1284.5 221.365H1243.63L1256.27 245.767ZM1292.38 245.767H1328.3L1325.78 221.365H1284.8L1292.38 245.767ZM1328.5 245.767H1364.48L1367.01 221.365H1325.98L1328.5 245.767ZM1364.68 245.767H1400.61L1408.19 221.365H1367.21L1364.68 245.767ZM1400.91 245.767H1436.7L1449.33 221.365H1408.47L1400.91 245.767ZM1437.16 245.767H1472.79L1490.47 221.365H1449.74L1437.16 245.767ZM1473.41 245.767H1508.93L1531.66 221.365H1491.07L1473.41 245.767ZM1509.66 245.767H1545.03L1572.8 221.365H1532.38L1509.66 245.767ZM1545.91 245.767H1581.12L1613.97 221.365H1573.71L1545.91 245.767ZM1582.17 245.767H1617.23L1655.12 221.365H1614.99L1582.17 245.767ZM1581.14 246.53L1553.21 267.286H1583.81L1616.04 246.53H1581.14ZM1585.01 267.286H1615.46L1651.99 246.53H1617.23L1585.01 267.286ZM1583.83 268.049L1556.67 285.532H1583.35L1614.12 268.049H1583.83ZM1584.7 285.532H1611.21L1645.61 268.049H1615.47L1584.7 285.532ZM1612.71 285.532H1639.06L1677.07 268.049H1647.09L1612.71 285.532ZM1640.74 285.532H1666.94L1708.57 268.049H1678.75L1640.74 285.532ZM1639.09 286.294L1607.46 300.839H1630.5L1665.13 286.294H1639.09ZM1605.82 301.602L1579.71 313.598H1600.1L1628.68 301.602H1605.82ZM1578.07 314.361L1556.76 324.162H1574.97L1598.31 314.361H1578.07ZM1576.78 324.162H1594.84L1620.21 314.361H1600.11L1576.78 324.162ZM1574.97 324.925L1556.01 332.885H1572.25L1592.86 324.925H1574.97ZM1554.2 333.648L1538.74 340.139H1553.48L1570.29 333.648H1554.2ZM1536.93 340.901L1524.08 346.295H1537.55L1551.52 340.901H1536.93ZM1535.12 340.901H1520.36L1508.62 346.295H1522.25L1535.12 340.901ZM1518.72 340.901H1503.8L1493.18 346.295H1506.96L1518.72 340.901ZM1502.32 340.901H1487.24L1477.74 346.295H1491.68L1502.32 340.901ZM1485.91 340.901H1470.69L1462.3 346.295H1476.41L1485.91 340.901ZM1469.5 340.901H1454.13L1446.86 346.295H1461.1L1469.5 340.901ZM1453.1 340.901H1437.56L1431.42 346.295H1445.82L1453.1 340.901ZM1436.7 340.901H1421.01L1415.98 346.295H1430.53L1436.7 340.901ZM1420.29 340.901H1404.45L1400.53 346.295H1415.24L1420.29 340.901ZM1403.89 340.901H1387.92L1385.12 346.295H1399.98L1403.89 340.901ZM1387.48 340.901H1371.37L1369.69 346.295H1384.69L1387.48 340.901ZM1371.07 340.901H1354.83L1354.28 346.295H1369.39L1371.07 340.901ZM1354.63 340.901H1338.34L1338.9 346.295H1354.06L1354.63 340.901ZM1338.15 340.901H1321.92L1323.6 346.295H1338.71L1338.15 340.901ZM1321.62 340.901H1305.51L1308.3 346.295H1323.3L1321.62 340.901ZM1305.07 340.901H1289.1L1293.01 346.295H1307.87L1305.07 340.901ZM1288.52 340.901H1272.68L1277.71 346.295H1292.42L1288.52 340.901ZM1271.97 340.901H1256.29L1262.43 346.295H1276.99L1271.97 340.901ZM1255.41 340.901H1239.89L1247.15 346.295H1261.55L1255.41 340.901ZM1238.85 340.901H1223.46L1231.84 346.295H1246.09L1238.85 340.901ZM1222.29 340.901H1207.08L1216.58 346.295H1230.66L1222.29 340.901ZM1205.73 340.901H1190.66L1201.27 346.295H1215.21L1205.73 340.901ZM1189.17 340.901H1174.27L1186.01 346.295H1199.79L1189.17 340.901ZM1172.61 340.901H1157.87L1170.72 346.295H1184.34L1172.61 340.901ZM1156.05 340.901H1141.46L1155.43 346.295H1168.9L1156.05 340.901ZM1154.24 340.139L1138.78 333.648H1122.69L1139.5 340.139H1154.24ZM1156.05 340.139H1170.93L1156.81 333.648H1140.6L1156.05 340.139ZM1155.19 332.885L1137.87 324.925H1119.82L1138.78 332.885H1155.19ZM1136.22 324.162L1114.9 314.361H1094.67L1118.01 324.162H1136.22ZM1113.26 313.598L1087.17 301.602H1064.29L1092.86 313.598H1113.26ZM1085.51 300.839L1053.89 286.294H1027.84L1062.48 300.839H1085.51ZM1052.24 285.532L1014.23 268.049H984.398L1026.03 285.532H1052.24ZM1012.57 267.286L967.445 246.53H933.167L982.592 267.286H1012.57ZM1014.23 267.286H1044.38L1003.55 246.53H969.083L1014.23 267.286ZM1045.88 267.286H1076.17L1039.64 246.53H1005.05L1045.88 267.286ZM1038.31 245.767L995.331 221.365H955.506L1003.51 245.767H1038.31ZM1039.66 245.767H1074.57L1036.67 221.365H996.689L1039.66 245.767ZM1035.47 220.603L991.335 192.184H945.337L995.359 220.603H1035.47ZM1036.67 220.603H1076.95L1038.7 192.184H992.535L1036.67 220.603ZM1077.98 220.603H1118.43L1086.06 192.184H1039.73L1077.98 220.603ZM1119.29 220.603H1159.87L1133.39 192.184H1086.92L1119.29 220.603ZM1160.6 220.603H1201.33L1180.73 192.184H1134.12L1160.6 220.603ZM1201.91 220.603H1242.79L1228.08 192.184H1181.33L1201.91 220.603ZM1243.22 220.603H1284.24L1275.42 192.184H1228.51L1243.22 220.603ZM1284.55 220.603H1325.7L1322.76 192.184H1275.74L1284.55 220.603ZM1325.88 220.603H1367.07L1370.01 192.184H1322.94L1325.88 220.603ZM1367.27 220.603H1408.41L1417.23 192.184H1370.21L1367.27 220.603ZM1408.71 220.603H1449.73L1464.44 192.184H1417.54L1408.71 220.603ZM1450.16 220.603H1491.04L1511.64 192.184H1464.87L1450.16 220.603ZM1491.62 220.603H1532.35L1558.84 192.184H1512.22L1491.62 220.603ZM1533.09 220.603H1573.67L1606.03 192.184H1559.56L1533.09 220.603ZM1574.55 220.603H1614.97L1653.23 192.184H1606.92L1574.55 220.603ZM1616.01 220.603H1656.29L1700.42 192.184H1654.26L1616.01 220.603ZM1657.48 220.603H1697.59L1747.61 192.184H1701.62L1657.48 220.603ZM1656.3 221.365L1618.4 245.767H1653.31L1696.26 221.365H1656.3ZM1654.66 245.767H1689.41L1737.41 221.365H1697.59L1654.66 245.767ZM1653.32 246.53L1616.79 267.286H1647.09L1687.92 246.53H1653.32ZM1648.58 267.286H1678.72L1723.85 246.53H1689.41L1648.58 267.286ZM1680.39 267.286H1710.38L1759.81 246.53H1725.52L1680.39 267.286ZM1712.19 267.286H1742.02L1795.74 246.53H1761.62L1712.19 267.286ZM1710.38 268.049L1668.74 285.532H1694.79L1740.05 268.049H1710.38ZM1666.93 286.294L1632.3 300.839H1655.17L1692.82 286.294H1666.93ZM1630.49 301.602L1601.92 313.598H1622.16L1653.21 301.602H1630.49ZM1624.13 313.598H1644.21L1677.76 301.602H1655.17L1624.13 313.598ZM1622.16 314.361L1596.79 324.162H1614.68L1642.08 314.361H1622.16ZM1594.82 324.925L1574.21 332.885H1590.3L1612.56 324.925H1594.82ZM1572.25 333.648L1555.44 340.139H1570.03L1588.18 333.648H1572.25ZM1553.48 340.901L1539.51 346.295H1552.82L1567.91 340.901H1553.48ZM1537.54 347.076L1525.5 351.726H1537.69L1550.7 347.076H1537.54ZM1535.57 347.076H1522.26L1511.18 351.726H1523.53L1535.57 347.076ZM1520.44 347.076H1506.98L1496.86 351.726H1509.36L1520.44 347.076ZM1505.31 347.076H1491.69L1482.53 351.726H1495.21L1505.31 347.076ZM1490.19 347.076H1476.41L1468.21 351.726H1481.03L1490.19 347.076ZM1475.05 347.076H1461.12L1453.88 351.726H1466.87L1475.05 347.076ZM1459.92 347.076H1445.84L1439.58 351.726H1452.7L1459.92 347.076ZM1444.79 347.076H1430.55L1425.25 351.726H1438.54L1444.79 347.076ZM1429.66 347.076H1415.27L1410.93 351.726H1424.36L1429.66 347.076ZM1414.53 347.076H1399.99L1396.61 351.726H1410.19L1414.53 347.076ZM1399.4 347.076H1384.7L1382.29 351.726H1396.03L1399.4 347.076ZM1384.26 347.076H1369.43L1367.98 351.726H1381.86L1384.26 347.076ZM1369.13 347.076H1354.17L1353.69 351.726H1367.68L1369.13 347.076ZM1353.97 347.076H1338.96L1339.45 351.726H1353.48L1353.97 347.076ZM1338.76 347.076H1323.83L1325.28 351.726H1339.27L1338.76 347.076ZM1323.51 347.076H1308.67L1311.08 351.726H1324.95L1323.51 347.076ZM1308.23 347.076H1293.53L1296.91 351.726H1310.64L1308.23 347.076ZM1292.96 347.076H1278.41L1282.74 351.726H1296.32L1292.96 347.076ZM1277.67 347.076H1263.27L1268.57 351.726H1282.01L1277.67 347.076ZM1262.39 347.076H1248.15L1254.41 351.726H1267.69L1262.39 347.076ZM1247.11 347.076H1233.02L1240.26 351.726H1253.38L1247.11 347.076ZM1231.82 347.076H1217.89L1226.08 351.726H1239.05L1231.82 347.076ZM1216.54 347.076H1202.76L1211.91 351.726H1224.73L1216.54 347.076ZM1201.26 347.076H1187.63L1197.75 351.726H1210.42L1201.26 347.076ZM1185.97 347.076H1172.51L1183.59 351.726H1196.09L1185.97 347.076ZM1170.69 347.076H1157.37L1169.41 351.726H1181.79L1170.69 347.076ZM1155.4 347.076H1142.24L1155.25 351.726H1167.47L1155.4 347.076ZM1153.43 346.313L1139.46 340.92H1125.04L1140.12 346.313H1153.43ZM1137.5 340.157L1120.7 333.666H1104.76L1122.91 340.157H1137.5ZM1118.73 332.904L1098.12 324.943H1080.41L1102.67 332.904H1118.73ZM1120.7 332.904H1136.95L1117.99 324.943H1100.1L1120.7 332.904ZM1116.18 324.181L1092.83 314.379H1072.75L1098.13 324.181H1116.18ZM1091.03 313.617L1062.45 301.62H1039.73L1070.79 313.617H1091.03ZM1060.65 300.858L1026.01 286.313H1000.11L1037.76 300.858H1060.65ZM1024.2 285.551L982.565 268.068H952.895L998.151 285.551H1024.2ZM980.754 267.305L931.33 246.548H897.207L950.93 267.305H980.754ZM929.524 245.786L871.411 221.384H832.078L895.238 245.786H929.524ZM931.334 245.786H965.77L912.716 221.384H873.225L931.334 245.786ZM967.435 245.786H1002.03L954.026 221.384H914.377L967.435 245.786ZM952.532 220.621L896.627 192.202H850.918L912.711 220.621H952.532ZM954.035 220.621H993.996L943.975 192.202H898.13L954.035 220.621ZM942.639 191.439L884.929 158.649H832.133L896.636 191.439H942.639ZM943.997 191.439H990.159L939.236 158.649H886.286L943.997 191.439ZM991.349 191.439H1037.66L993.521 158.631H940.417L991.349 191.439ZM1038.7 191.439H1085.17L1047.83 158.631H994.571L1038.7 191.439ZM1086.05 191.439H1132.67L1102.14 158.631H1048.73L1086.05 191.439ZM1133.4 191.439H1180.18L1156.44 158.631H1102.86L1133.4 191.439ZM1180.76 191.439H1227.68L1210.71 158.649H1157L1180.76 191.439ZM1228.12 191.439H1275.18L1265 158.649H1211.14L1228.12 191.439ZM1275.48 191.439H1322.66L1319.26 158.649H1265.3L1275.48 191.439ZM1322.86 191.439H1370.09L1373.48 158.649H1319.47L1322.86 191.439ZM1370.29 191.439H1417.47L1427.66 158.649H1373.67L1370.29 191.439ZM1417.77 191.439H1464.83L1481.81 158.649H1427.95L1417.77 191.439ZM1465.29 191.439H1512.19L1535.95 158.649H1482.24L1465.29 191.439ZM1512.81 191.439H1559.54L1590.09 158.649H1536.53L1512.81 191.439ZM1560.32 191.439H1606.94L1644.28 158.649H1590.88L1560.32 191.439ZM1607.84 191.439H1654.26L1698.4 158.649H1645.12L1607.84 191.439ZM1655.36 191.439H1701.6L1752.52 158.649H1699.42L1655.36 191.439ZM1702.88 191.439H1749.04L1806.75 158.649H1753.8L1702.88 191.439ZM1750.4 191.439H1796.3L1860.8 158.649H1808.01L1750.4 191.439ZM1749.04 192.202L1698.94 220.603H1738.89L1794.8 192.184L1749.04 192.202ZM1740.41 220.603H1780.21L1842 192.184H1796.3L1740.41 220.603ZM1738.92 221.365L1690.92 245.767H1725.52L1778.57 221.365H1738.92ZM1727.15 245.767H1761.58L1819.7 221.365H1780.23L1727.15 245.767ZM1763.4 245.767H1797.73L1860.89 221.365H1821.53L1763.4 245.767ZM1799.66 245.767H1833.79L1902 221.365H1862.84L1799.66 245.767ZM1797.69 246.53L1743.99 267.286H1773.66L1831.67 246.53H1797.69ZM1742.01 268.049L1696.75 285.532H1722.65L1771.52 268.049H1742.01ZM1694.78 286.294L1657.13 300.839H1679.88L1720.54 286.294H1694.78ZM1681.99 300.839H1704.56L1748.23 286.294H1722.66L1681.99 300.839ZM1679.86 301.602L1646.34 313.598H1666.25L1702.28 301.602H1679.86ZM1644.2 314.361L1616.8 324.162H1634.54L1663.95 314.361H1644.2ZM1614.67 324.925L1592.41 332.885H1608.35L1632.26 324.925H1614.67ZM1590.29 333.648L1572.14 340.139H1586.57L1606.07 333.648H1590.29ZM1570.02 340.901L1554.93 346.295H1568.09L1584.29 340.901H1570.02ZM1552.82 347.057L1539.81 351.707H1551.85L1565.82 347.057H1552.82ZM1537.69 352.47L1525.78 356.729H1536.78L1549.57 352.47H1537.69ZM1535.57 352.47H1523.54L1512.5 356.729H1523.65L1535.57 352.47ZM1521.56 352.47H1509.37L1499.22 356.729H1510.53L1521.56 352.47ZM1507.55 352.47H1495.21L1485.94 356.729H1497.41L1507.55 352.47ZM1493.52 352.47H1481.04L1472.66 356.729H1484.28L1493.52 352.47ZM1479.52 352.47H1466.9L1459.4 356.729H1471.17L1479.52 352.47ZM1465.49 352.47H1452.72L1446.08 356.729H1458.03L1465.49 352.47ZM1451.46 352.47H1438.55L1432.82 356.729H1444.9L1451.46 352.47ZM1437.45 352.47H1424.33L1419.48 356.729H1431.72L1437.45 352.47ZM1423.45 352.47H1410.23L1406.25 356.729H1418.65L1423.45 352.47ZM1409.44 352.47H1396.07L1392.98 356.729H1405.53L1409.44 352.47ZM1395.41 352.47H1381.83L1379.63 356.729H1392.32L1395.41 352.47ZM1381.38 352.47H1367.66L1366.34 356.729H1379.18L1381.38 352.47ZM1367.35 352.47H1353.52L1353.06 356.729H1366.02L1367.35 352.47ZM1339.23 352.47H1325.39L1326.72 356.729H1339.67L1339.23 352.47ZM1325.09 352.47H1311.37L1313.58 356.729H1326.42L1325.09 352.47ZM1310.94 352.47H1297.36L1300.45 356.729H1313.15L1310.94 352.47ZM1296.78 352.47H1283.35L1287.33 356.729H1299.87L1296.78 352.47ZM1282.62 352.47H1269.34L1274.2 356.729H1286.59L1282.62 352.47ZM1268.46 352.47H1255.33L1261.07 356.729H1273.31L1268.46 352.47ZM1254.29 352.47H1241.33L1247.95 356.729H1260.03L1254.29 352.47ZM1240.13 352.47H1227.32L1234.82 356.729H1246.75L1240.13 352.47ZM1225.97 352.47H1213.29L1221.68 356.729H1233.45L1225.97 352.47ZM1211.81 352.47H1199.3L1208.57 356.729H1220.19L1211.81 352.47ZM1197.64 352.47H1185.41L1195.56 356.729H1207.02L1197.64 352.47ZM1183.48 352.47H1171.38L1182.41 356.729H1193.72L1183.48 352.47ZM1169.31 352.47H1157.28L1169.19 356.729H1180.43L1169.31 352.47ZM1155.15 352.47H1143.27L1156.07 356.729H1167.07L1155.15 352.47ZM1153.03 351.707L1140.02 347.057H1127.02L1140.99 351.707H1153.03ZM1137.9 346.295L1122.81 340.901H1108.54L1124.74 346.295H1137.9ZM1120.7 340.139L1102.55 333.648H1086.77L1106.27 340.139H1120.7ZM1100.43 332.885L1078.16 324.925H1060.58L1084.49 332.885H1100.43ZM1076.05 324.162L1048.64 314.361H1028.87L1058.29 324.162H1076.05ZM1078.17 324.162H1096.07L1070.69 314.361H1050.78L1078.17 324.162ZM1068.73 313.598L1037.67 301.602H1015.2L1048.73 313.598H1068.73ZM1035.69 300.839L998.047 286.294H972.31L1012.97 300.839H1035.69ZM996.078 285.532L950.822 268.049H921.306L970.182 285.532H996.078ZM948.858 267.286L895.134 246.53H861.164L919.301 267.286H948.858ZM893.192 245.767L830.028 221.365H790.85L859.065 245.767H893.192ZM828.15 220.603L754.568 192.184H709.348L788.795 220.603H828.15ZM830.123 220.603H869.614L801.938 192.184H756.559L830.123 220.603ZM871.433 220.603H911.078L849.289 192.184H803.757L871.433 220.603ZM847.637 191.421L776.345 158.631H723.848L801.929 191.421H847.637ZM849.298 191.421H895.147L830.644 158.631H778.006L849.298 191.421ZM829.15 157.943L755.382 120.429H694.825L776.381 157.943H829.15ZM830.653 157.943H883.603L817.583 120.429H756.862L830.653 157.943ZM884.96 157.943H938.064L879.81 120.429H818.94L884.96 157.943ZM939.268 157.943H992.526L942.038 120.429H881.009L939.268 157.943ZM993.575 157.943H1046.98L1004.26 120.429H943.078L993.575 157.943ZM1047.88 157.943H1101.45L1066.5 120.429H1005.13L1047.88 157.943ZM1102.19 157.943H1155.91L1128.72 120.429H1067.19L1102.19 157.943ZM1156.5 157.943H1210.35L1190.94 120.429H1129.3L1156.5 157.943ZM1210.81 157.943H1264.81L1253.17 120.429H1191.34L1210.81 157.943ZM1265.11 157.943H1319.24L1315.29 120.354H1253.41L1265.11 157.943ZM1319.42 157.943H1373.6L1377.48 120.429H1315.51L1319.42 157.943ZM1373.8 157.943H1427.89L1439.54 120.354H1377.65L1373.8 157.943ZM1428.22 157.943H1482.2L1501.62 120.429H1439.84L1428.22 157.943ZM1482.67 157.943H1536.52L1563.71 120.429H1502.05L1482.67 157.943ZM1537.11 157.943H1590.81L1625.75 120.354H1564.27L1537.11 157.943ZM1591.57 157.943H1645.1L1687.83 120.429H1626.49L1591.57 157.943ZM1646.02 157.943H1699.42L1749.89 120.354H1688.71L1646.02 157.943ZM1700.47 157.943H1753.7L1811.95 120.429H1750.93L1700.47 157.943ZM1754.93 157.943H1808L1874.02 120.429H1813.15L1754.93 157.943ZM1809.38 157.943H1862.33L1936.12 120.429H1875.37L1809.38 157.943ZM1863.83 157.943H1916.63L1998.18 120.429H1937.59L1863.83 157.943ZM1862.34 158.705L1797.84 191.495H1843.68L1914.94 158.631L1862.34 158.705ZM1845.35 191.495H1891.06L1969.14 158.705H1916.64L1845.35 191.495ZM1843.7 192.258L1781.89 220.603H1821.54L1889.21 192.184L1843.7 192.258ZM1823.34 220.603H1862.83L1936.39 192.184H1891.02L1823.34 220.603ZM1864.8 220.603H1904.14L1983.58 192.184H1938.36L1864.8 220.603ZM1904.15 221.365L1835.93 245.767H1869.9L1943.17 221.365H1904.15ZM1833.81 246.53L1775.79 267.286H1805.3L1867.62 246.53H1833.81ZM1773.66 268.049L1724.79 285.532H1750.52L1803.02 268.049H1773.66ZM1752.81 285.532H1778.38L1834.5 268.049H1805.31L1752.81 285.532ZM1750.55 286.294L1706.87 300.839H1729.28L1775.97 286.294H1750.55ZM1704.6 301.602L1668.55 313.598H1688.32L1726.83 301.602H1704.6ZM1666.29 314.361L1636.87 324.162H1654.45L1685.91 314.361H1666.29ZM1634.58 324.925L1610.67 332.885H1626.44L1652 324.925H1634.58ZM1608.39 333.648L1588.9 340.139H1603.16L1624.01 333.648H1608.39ZM1586.61 340.901L1570.41 346.295H1583.41L1600.73 340.901H1586.61ZM1568.11 347.076L1554.14 351.726H1566.01L1580.95 347.076H1568.11ZM1551.86 352.488L1539.06 356.748H1549.92L1563.6 352.488H1551.86ZM1534.5 357.51H1523.64L1511.78 361.751H1521.73L1534.5 357.51ZM1521.53 357.51H1510.54L1499.56 361.751H1509.67L1521.53 357.51ZM1508.57 357.51H1497.41L1487.31 361.751H1497.59L1508.57 357.51ZM1495.59 357.51H1484.28L1475.05 361.732H1485.46L1495.59 357.51ZM1482.63 357.51H1471.17L1462.83 361.732H1473.41L1482.63 357.51ZM1469.66 357.51H1458.04L1450.57 361.751H1461.32L1469.66 357.51ZM1456.69 357.51H1444.93L1438.34 361.751H1449.23L1456.69 357.51ZM1443.72 357.51H1431.8L1426.09 361.751H1437.13L1443.72 357.51ZM1430.76 357.51H1418.67L1413.84 361.751H1425.04L1430.76 357.51ZM1417.79 357.51H1405.57L1401.62 361.751H1412.98L1417.79 357.51ZM1404.82 357.51H1392.43L1389.35 361.751H1400.86L1404.82 357.51ZM1391.85 357.51H1379.31L1377.11 361.751H1388.77L1391.85 357.51ZM1378.87 357.51H1366.2L1364.89 361.751H1376.69L1378.87 357.51ZM1365.89 357.51H1353.1L1352.65 361.751H1364.56L1365.89 357.51ZM1352.58 362.513L1352.13 367.107H1362.93L1364.36 362.513H1352.58ZM1352.38 362.513H1340.57L1341.05 367.107H1351.91L1352.38 362.513ZM1340.37 362.513H1328.6L1330.03 367.107H1340.84L1340.37 362.513ZM1340.29 361.751L1339.84 357.51H1327.06L1328.38 361.751H1340.29ZM1326.76 357.51H1314.09L1316.28 361.751H1328.08L1326.76 357.51ZM1313.63 357.51H1301.09L1304.17 361.751H1315.83L1313.63 357.51ZM1300.51 357.51H1288.14L1292.09 361.751H1303.6L1300.51 357.51ZM1287.38 357.51H1275.14L1279.98 361.751H1291.33L1287.38 357.51ZM1274.26 357.51H1262.18L1267.88 361.751H1279.09L1274.26 357.51ZM1261.14 357.51H1249.22L1255.81 361.751H1266.87L1261.14 357.51ZM1248.01 357.51H1236.24L1243.71 361.751H1254.61L1248.01 357.51ZM1234.89 357.51H1223.27L1231.61 361.751H1242.35L1234.89 357.51ZM1221.76 357.51H1210.3L1219.52 361.751H1230.11L1221.76 357.51ZM1208.64 357.51H1197.32L1207.43 361.751H1217.83L1208.64 357.51ZM1195.51 357.51H1184.36L1195.34 361.751H1205.61L1195.51 357.51ZM1182.39 357.51H1171.39L1183.25 361.751H1193.37L1182.39 357.51ZM1169.27 357.51H1158.43L1171.16 361.751H1181.12L1169.27 357.51ZM1156.14 357.51H1145.46L1159.08 361.751H1168.88L1156.14 357.51ZM1153.88 356.748L1141.08 352.488H1129.36L1143.04 356.748H1153.88ZM1138.8 351.726L1124.83 347.076H1112L1126.94 351.726H1138.8ZM1122.55 346.313L1106.35 340.92H1092.23L1109.56 346.313H1122.55ZM1104.07 340.157L1084.58 333.666H1068.96L1089.78 340.157H1104.07ZM1082.3 332.904L1058.39 324.943H1040.96L1066.52 332.904H1082.3ZM1056.11 324.181L1026.69 314.379H1007.08L1038.55 324.181H1056.11ZM1024.39 313.617L988.367 301.62H966.114L1004.63 313.617H1024.39ZM1026.65 313.617H1046.57L1013.03 301.62H990.611L1026.65 313.617ZM1010.92 300.858L970.259 286.313H944.676L988.348 300.858H1010.92ZM968.137 285.551L919.26 268.068H889.902L942.4 285.551H968.137ZM917.133 267.305L859.114 246.548H825.299L887.617 267.305H917.133ZM856.992 245.786L788.772 221.384H749.748L823.018 245.786H856.992ZM786.7 220.603L707.252 192.184H662.186L747.517 220.603H786.7ZM705.13 191.421L613.468 158.631H561.455L659.905 191.421H705.13ZM707.257 191.421H752.635L667.766 158.631H615.586L707.257 191.421ZM754.608 191.421H800.145L722.065 158.631H669.739L754.608 191.421ZM720.254 157.943L630.927 120.429H570.682L667.775 157.943H720.254ZM722.065 157.943H774.698L693.141 120.429H632.738L722.065 157.943ZM691.49 119.666L598.836 77.0556H529.449L630.932 119.666H691.49ZM693.155 119.666H753.871L670.038 77.0556H600.497L693.155 119.666ZM755.373 119.666H816.252L741.24 77.0556H671.545L755.373 119.666ZM817.601 119.666H878.629L812.442 77.0556H742.588L817.601 119.666ZM879.824 119.666H941.024L883.666 77.0556H813.659L879.824 119.666ZM942.047 119.666H1003.39L954.85 77.0556H884.702L942.047 119.666ZM1004.27 119.666H1065.76L1026.05 77.0556H955.732L1004.27 119.666ZM1066.49 119.666H1128.14L1097.25 77.0556H1026.78L1066.49 119.666ZM1128.72 119.666H1190.51L1168.45 77.0556H1097.85L1128.72 119.666ZM1190.95 119.666H1252.88L1239.64 77.0556H1168.88L1190.95 119.666ZM1253.18 119.666H1315.23L1310.82 77.0556H1239.94L1253.18 119.666ZM1315.43 119.666H1377.53L1381.94 77.0556H1311.01L1315.43 119.666ZM1377.73 119.666H1439.78L1453.01 77.0556H1382.14L1377.73 119.666ZM1440.08 119.666H1502.01L1524.07 77.0556H1453.33L1440.08 119.666ZM1502.45 119.666H1564.24L1595.12 77.0556H1524.52L1502.45 119.666ZM1564.82 119.666H1626.47L1666.17 77.0556H1595.71L1564.82 119.666ZM1627.2 119.666H1688.69L1737.22 77.0556H1666.9L1627.2 119.666ZM1689.58 119.666H1750.91L1808.27 77.0556H1738.12L1689.58 119.666ZM1751.96 119.666H1813.14L1879.32 77.0556H1809.31L1751.96 119.666ZM1814.34 119.666H1875.36L1950.37 77.0556H1880.51L1814.34 119.666ZM1876.71 119.666H1937.57L2021.4 77.0556H1951.71L1876.71 119.666ZM1939.09 119.666H1999.81L2092.47 77.0556H2022.92L1939.09 119.666ZM2001.47 119.666H2062.02L2163.51 77.0556H2094.12L2001.47 119.666ZM1999.82 120.429L1918.26 157.943H1970.9L2060.21 120.354L1999.82 120.429ZM1972.71 157.943H2025.21L2122.3 120.429H2062.02L1972.71 157.943ZM1970.9 158.705L1892.82 191.495H1938.36L2023.23 158.705H1970.9ZM1940.33 191.495H1985.71L2077.37 158.705H2025.2L1940.33 191.495ZM1987.85 191.495H2033.06L2131.51 158.705H2079.5L1987.85 191.495ZM1945.47 221.44L1872.2 245.842H1906.01L1984.33 221.44H1945.47ZM1869.91 246.604L1807.6 267.361H1836.95L1903.57 246.604H1869.91ZM1516.67 367.163L1531.42 362.569H1521.77L1507.97 367.163H1516.67ZM1505.69 367.163L1519.49 362.569H1509.68L1496.83 367.163H1505.69ZM1494.71 367.163L1507.56 362.569H1497.6L1485.71 367.163H1494.71ZM1483.73 367.163L1495.63 362.569H1485.5L1474.56 367.163H1483.73ZM1472.75 367.163L1483.7 362.569H1473.41L1463.42 367.163H1472.75ZM1461.77 367.163L1471.76 362.569H1461.35L1452.3 367.163H1461.77ZM1450.79 367.163L1459.84 362.569H1449.25L1441.16 367.163H1450.79ZM1439.81 367.163L1447.89 362.495H1437.15L1430.01 367.089L1439.81 367.163ZM1428.83 367.163L1435.96 362.569H1425.06L1418.88 367.163H1428.83ZM1417.84 367.163L1424.03 362.569H1412.97L1407.74 367.163H1417.84ZM1406.87 367.163L1412.1 362.569H1400.89L1396.61 367.163H1406.87ZM1395.88 367.163L1400.17 362.569H1388.81L1385.48 367.163H1395.88ZM1384.9 367.163L1388.23 362.569H1376.73L1374.35 367.163H1384.9ZM1373.91 367.163L1376.29 362.569H1364.62L1363.2 367.163H1373.91ZM1328.32 362.569H1316.65L1319.03 367.163H1329.72L1328.32 362.569ZM1316.24 362.569H1304.74L1308.07 367.163H1318.62L1316.24 362.569ZM1304.16 362.569H1292.81L1297.09 367.163H1307.5L1304.16 362.569ZM1292.07 362.569H1280.87L1286.1 367.163H1296.36L1292.07 362.569ZM1279.99 362.569H1268.94L1275.12 367.163H1285.22L1279.99 362.569ZM1267.9 362.569H1257.01L1264.14 367.163H1274.1L1267.9 362.569ZM1255.81 362.569H1245.07L1253.16 367.163H1262.95L1255.81 362.569ZM1243.73 362.569H1233.14L1242.19 367.163H1251.82L1243.73 362.569ZM1231.64 362.569H1221.23L1231.22 367.163H1240.7L1231.64 362.569ZM1219.54 362.569H1209.28L1220.22 367.163H1229.54L1219.54 362.569ZM1207.46 362.569H1197.34L1209.24 367.163H1218.4L1207.46 362.569ZM1195.37 362.569H1185.41L1198.27 367.163H1207.27L1195.37 362.569ZM1183.28 362.569H1173.48L1187.28 367.163H1196.13L1183.28 362.569ZM1171.19 362.569H1161.55L1176.3 367.163H1185L1171.19 362.569ZM963.697 300.913H986.104L942.431 286.369H917.015L963.697 300.913ZM914.576 285.606H940.155L887.658 268.123H858.463L914.576 285.606ZM856.019 267.361H885.359L823.036 246.604H789.415L856.019 267.361ZM786.967 245.842H820.778L747.508 221.44H708.646L786.967 245.842ZM706.198 220.603H745.218L659.887 192.184H614.984L706.198 220.603ZM507.305 158.631L612.549 191.421H657.611L559.16 158.631H507.305ZM446.535 120.354L559.164 157.868H611.336L506.473 120.354H446.535ZM508.6 120.354L613.463 157.868H665.788L568.695 120.354H508.6ZM458.397 76.9813L568.705 119.592H629.108L527.625 76.9813H458.397ZM413.141 28.1403L527.639 76.2187H597.18L492.638 28.1403H413.141ZM494.303 28.1403L598.845 76.2187H668.54L573.954 28.1403H494.303ZM575.461 28.1403L670.047 76.2187H739.905L655.275 28.1403H575.461ZM656.619 28.1403L741.249 76.2187H811.26L736.587 28.1403H656.619ZM737.782 28.1403L812.455 76.2187H882.602L817.886 28.1403H737.782ZM818.94 28.1403L883.657 76.2187H953.976L899.216 28.1403H818.94ZM900.103 28.1403L954.863 76.2187H1025.34L980.537 28.1403H900.103ZM981.261 28.1403L1026.06 76.2187H1096.71L1061.86 28.1403H981.261ZM1062.42 28.1403L1097.27 76.2187H1168.04L1143.15 28.1403H1062.42ZM1143.59 28.1403L1168.48 76.2187H1239.4L1224.46 28.1403H1143.59ZM1224.76 28.1403L1239.7 76.2187H1310.75L1305.77 28.1403H1224.76ZM1305.95 28.1403L1310.93 76.2187H1382.01L1386.99 28.1403H1305.95ZM1387.19 28.1403L1382.21 76.2187H1453.26L1468.2 28.1403H1387.19ZM1468.47 28.1403L1453.54 76.2187H1524.46L1549.35 28.1403H1468.47ZM1549.78 28.1403L1524.89 76.2187H1595.67L1630.52 28.1403H1549.78ZM1631.09 28.1403L1596.24 76.2187H1666.88L1711.68 28.1403H1631.09ZM1712.4 28.1403L1667.6 76.2187H1738.09L1792.85 28.1403H1712.4ZM1793.72 28.1403L1738.96 76.2187H1809.29L1874.01 28.1403H1793.72ZM1875.03 28.1403L1810.32 76.2187H1880.46L1955.14 28.1403H1875.03ZM1956.35 28.1403L1881.68 76.2187H1951.68L2036.31 28.1403H1956.35ZM2037.66 28.1403L1953.03 76.2187H2022.89L2117.48 28.1403H2037.66ZM2118.98 28.1403L2024.39 76.2187H2094.09L2198.63 28.1403H2118.98ZM2279.79 28.1403H2200.3L2095.76 76.2187H2165.3L2279.79 28.1403ZM2234.54 76.9813H2165.29L2063.83 119.592H2124.25L2234.54 76.9813ZM2124.24 120.354L2027.18 157.868H2079.49L2184.35 120.354H2124.24ZM2246.39 120.354H2186.48L2081.62 157.868H2133.79L2246.39 120.354Z" fill="url(#paint0_linear_67_380)"/>
<defs>
<linearGradient id="paint0_linear_67_380" x1="1346" y1="357.364" x2="1346" y2="168.14" gradientUnits="userSpaceOnUse">
<stop stop-color="#ACF10E" stop-opacity="0"/>
<stop offset="0.491739" stop-color="#ACF10E"/>
<stop offset="0.803041" stop-color="#1AFFD3" stop-opacity="0"/>
<stop offset="0.9108" stop-color="#1AFFD3" stop-opacity="0"/>
</linearGradient>
</defs>
</svg>
