<svg width="36" height="24" viewBox="0 0 36 24" fill="none" xmlns="http://www.w3.org/2000/svg">
<path d="M28.7423 19.8163C27.8251 21.491 25.6605 22.7525 23.0154 23.0796H23.0123C22.8824 23.089 22.7556 23.0937 22.6398 23.0937H0L1.25837 21.8353L13.2881 9.80405L15.2601 7.83198C16.5576 6.53291 18.0868 5.51869 19.7537 4.83003C21.4174 4.1398 23.2158 3.77512 25.0532 3.77512L25.0799 3.80173L9.06374 19.8163H28.7423ZM6.63934 3.77669L12.8952 10.1593L15.8158 6.65499C13.972 4.81125 11.4725 3.77669 8.86654 3.77669H6.63934ZM26.3163 3.27897L10.3033 19.292L10.3299 19.3186C12.1659 19.3186 13.9658 18.9539 15.6295 18.2637C17.2948 17.575 18.8255 16.5608 20.123 15.2617L22.0951 13.2896L34.1248 1.25837L35.3832 0H12.7403C12.6244 0 12.4977 0.00469486 12.3678 0.0140857H12.3646C9.7211 0.341201 7.55495 1.60271 6.63777 3.27584V3.27741H26.3163V3.27897ZM28.7423 19.3186L22.4864 12.9359L19.5659 16.4403C21.4096 18.284 23.9091 19.3186 26.5151 19.3186H28.7423Z" fill="url(#paint0_linear_36_90)"/>
<defs>
<linearGradient id="paint0_linear_36_90" x1="-0.000313029" y1="11.5475" x2="35.3818" y2="11.5475" gradientUnits="userSpaceOnUse">
<stop stop-color="#BAFF00"/>
<stop offset="1" stop-color="#06FFCC"/>
</linearGradient>
</defs>
</svg>
