<svg width="25" height="25" viewBox="0 0 25 25" fill="none" xmlns="http://www.w3.org/2000/svg">
<path fill-rule="evenodd" clip-rule="evenodd" d="M23.1219 11.0133C23.3717 11.3698 23.5132 11.791 23.5291 12.2261C23.5357 12.6519 23.4216 13.071 23.2001 13.4347C22.9785 13.7985 22.6587 14.0921 22.2772 14.2817C22.2945 14.508 22.2945 14.7354 22.2772 14.9617C22.2772 18.4239 18.2432 21.2368 13.2664 21.2368C8.28963 21.2368 4.25564 18.4239 4.25564 14.9617C4.23825 14.7354 4.23825 14.508 4.25564 14.2817C3.95836 14.1451 3.69433 13.9455 3.48186 13.6968C3.26938 13.448 3.11354 13.156 3.02513 12.841C2.93672 12.5261 2.91785 12.1956 2.96983 11.8726C3.02182 11.5496 3.14341 11.2418 3.32619 10.9705C3.50897 10.6991 3.74857 10.4708 4.02836 10.3013C4.30816 10.1317 4.62148 10.0251 4.9466 9.98866C5.27172 9.95224 5.60088 9.98696 5.91125 10.0904C6.22161 10.1939 6.50577 10.3636 6.74404 10.5877C8.52498 9.37991 10.6202 8.7191 12.7718 8.68667L13.9156 3.32348C13.9284 3.26139 13.9535 3.20246 13.9892 3.15013C14.025 3.09779 14.0708 3.05307 14.124 3.01857C14.1772 2.98407 14.2367 2.96046 14.2991 2.94913C14.3615 2.93779 14.4255 2.93895 14.4874 2.95254L18.2741 3.70988C18.4591 3.39216 18.7512 3.15076 19.0981 3.02901C19.4448 2.90726 19.8238 2.91313 20.1667 3.04555C20.5097 3.17799 20.7941 3.42832 20.9691 3.75161C21.1441 4.07491 21.1982 4.44998 21.1216 4.80952C21.045 5.16905 20.8426 5.48951 20.551 5.71336C20.2595 5.93721 19.8976 6.0498 19.5306 6.03091C19.1634 6.01202 18.815 5.86289 18.5479 5.6103C18.2809 5.35771 18.1125 5.01819 18.0732 4.65269L14.7656 3.95717L13.761 8.77941C15.8865 8.82499 17.9534 9.48529 19.7115 10.6805C20.0256 10.379 20.4201 10.1749 20.8476 10.0926C21.2751 10.0103 21.7173 10.0535 22.1209 10.2169C22.5244 10.3802 22.872 10.6568 23.1219 11.0133ZM16.782 15.3152C17.6351 15.3152 18.3266 14.6237 18.3266 13.7707C18.3266 12.9176 17.6351 12.2261 16.782 12.2261C15.929 12.2261 15.2375 12.9176 15.2375 13.7707C15.2375 14.6237 15.929 15.3152 16.782 15.3152ZM11.1672 13.7707C11.1672 14.6237 10.4757 15.3152 9.6226 15.3152C8.76955 15.3152 8.07802 14.6237 8.07802 13.7707C8.07802 12.9176 8.76955 12.2261 9.6226 12.2261C10.4757 12.2261 11.1672 12.9176 11.1672 13.7707ZM13.2347 18.3899H13.2194C12.1178 18.3967 11.3032 18.1498 10.7701 17.908C10.5015 17.7863 10.3033 17.6652 10.1753 17.5774C10.1112 17.5336 10.0648 17.498 10.036 17.4749C10.0216 17.4633 10.0116 17.4549 10.0061 17.4501L10.0015 17.4461C9.83128 17.2908 9.56723 17.3023 9.41111 17.4721C9.25469 17.6423 9.26586 17.9071 9.4361 18.0636L9.43754 18.0649L9.43942 18.0666L9.4445 18.0711L9.45998 18.0846C9.47264 18.0955 9.49004 18.1102 9.51216 18.1279C9.55638 18.1635 9.61957 18.2116 9.70179 18.2679C9.86617 18.3807 10.1069 18.5266 10.4243 18.6705C11.0577 18.9577 11.9923 19.2349 13.2271 19.2271C14.4618 19.2349 15.3965 18.9577 16.0298 18.6705C16.3472 18.5266 16.5879 18.3807 16.7523 18.2679C16.8345 18.2116 16.8978 18.1635 16.9419 18.1279C16.9641 18.1102 16.9815 18.0955 16.9941 18.0846L17.0095 18.0711L17.0147 18.0666L17.0166 18.0649L17.0181 18.0636C17.1882 17.9071 17.1994 17.6423 17.0431 17.4721C16.8869 17.3023 16.6228 17.2908 16.4526 17.4461L16.4481 17.4501C16.4425 17.4549 16.4325 17.4633 16.4181 17.4749C16.3892 17.498 16.3429 17.5336 16.2788 17.5774C16.1509 17.6652 15.9526 17.7863 15.684 17.908C15.1509 18.1498 14.3363 18.3967 13.2347 18.3899Z" fill="white"/>
</svg>
