<svg width="82" height="82" viewBox="0 0 82 82" fill="none" xmlns="http://www.w3.org/2000/svg">
<path d="M16.393 40.499L6.74396 36.3489C5.36058 35.7956 4.54716 34.7927 4.30368 33.3401C4.06021 31.8876 4.45862 30.6426 5.49892 29.605L18.5718 16.5322C19.5402 15.5639 20.6815 14.8722 21.9957 14.4572C23.3099 14.0422 24.6587 13.973 26.0421 14.2497L31.4372 15.391C27.7713 19.7486 24.8496 23.7091 22.6722 27.2727C20.4947 30.8362 18.4017 35.245 16.393 40.499ZM77.3999 0.0356057C77.9533 0.0356057 78.5066 0.173942 79.06 0.450615C79.6133 0.727288 80.0975 1.07313 80.5125 1.48814C80.9275 1.90315 81.2734 2.38733 81.55 2.94067C81.8267 3.49402 81.965 4.04736 81.965 4.60071C82.2417 11.0334 80.8763 17.7081 77.8689 24.6249C74.8614 31.5417 70.6241 37.7323 65.157 43.1966C61.4219 46.9317 57.8251 49.9239 54.3667 52.1733C50.9082 54.4226 46.8273 56.5488 42.1238 58.552C41.2246 58.8978 40.3088 59.0707 39.3764 59.0707C38.444 59.0707 37.6306 58.7249 36.9361 58.0332L23.967 45.0641C23.2753 44.3725 22.9295 43.559 22.9295 42.6239C22.9295 41.6887 23.1024 40.7729 23.4482 39.8765C25.4541 35.2423 27.5818 31.1779 29.8311 27.6835C32.0805 24.1892 35.0714 20.5758 38.8037 16.8435C44.268 11.3792 50.4586 7.14195 57.3755 4.13175C64.2924 1.12155 70.9672 -0.243834 77.3999 0.0356057ZM51.0466 30.9538C52.6375 32.5447 54.5922 33.3401 56.9107 33.3401C59.2292 33.3401 61.1826 32.5447 62.7707 30.9538C64.3616 29.363 65.157 27.4096 65.157 25.0939C65.157 22.7781 64.3616 20.8234 62.7707 19.2298C61.1798 17.6389 59.2251 16.8435 56.9066 16.8435C54.588 16.8435 52.6347 17.6389 51.0466 19.2298C49.4557 20.8207 48.6603 22.7754 48.6603 25.0939C48.6603 27.4124 49.4557 29.3657 51.0466 30.9538ZM41.5013 65.6071C46.7581 63.6012 51.1849 61.5096 54.7817 59.3322C58.3785 57.1548 62.3557 54.2317 66.7133 50.563L67.7508 55.9581C68.0275 57.3415 67.9584 58.7083 67.5433 60.0584C67.1283 61.4086 66.4366 62.5665 65.4683 63.5321L52.3954 76.6049C51.3578 77.6424 50.1128 78.0228 48.6603 77.7462C47.2077 77.4695 46.2048 76.6395 45.6514 75.2561L41.5013 65.6071ZM7.78149 56.6637C10.2024 54.2566 13.149 53.0351 16.6213 52.9991C20.0935 52.9659 23.0332 54.1598 25.4403 56.5807C27.8474 59.0016 29.0509 61.9412 29.0509 65.3996C29.0509 68.858 27.8404 71.7977 25.4195 74.2186C23.6903 75.9478 20.8032 77.4349 16.7582 78.6799C12.7132 79.925 7.12715 81.0316 0 82C0.968363 74.8757 2.07506 69.3007 3.3201 65.2751C4.56514 61.2523 6.05227 58.3818 7.78149 56.6637Z" fill="url(#paint0_linear_81_17)"/>
<defs>
<linearGradient id="paint0_linear_81_17" x1="0" y1="41" x2="82" y2="41" gradientUnits="userSpaceOnUse">
<stop offset="0.25" stop-color="#BAFF00"/>
<stop offset="0.75" stop-color="#06FFCC"/>
</linearGradient>
</defs>
</svg>
