<svg width="25" height="25" viewBox="0 0 25 25" fill="none" xmlns="http://www.w3.org/2000/svg">
<path fill-rule="evenodd" clip-rule="evenodd" d="M17.0993 22.0344C18.3328 22.5741 18.7953 21.4434 18.7953 21.4434L22.0588 5.04865C22.0331 3.94368 20.5426 4.6118 20.5426 4.6118L2.272 11.7813C2.272 11.7813 1.3983 12.0897 1.4754 12.6293C1.55249 13.1689 2.24631 13.4259 2.24631 13.4259L6.84609 14.9678C6.84609 14.9678 8.23374 19.5162 8.51641 20.3899C8.77338 21.2378 9.00466 21.2635 9.00466 21.2635C9.26163 21.3663 9.4929 21.1865 9.4929 21.1865L12.4738 18.4882L17.0993 22.0344ZM17.896 7.9524C17.896 7.9524 18.5385 7.56694 18.5128 7.9524C18.5128 7.9524 18.6156 8.0038 18.2815 8.36356C17.9732 8.67191 10.7009 15.199 9.72438 16.0726C9.64728 16.1241 9.5959 16.2012 9.5959 16.304L9.31322 18.7196C9.26183 18.9765 8.92777 19.0022 8.85068 18.7709L7.64291 14.8135C7.59152 14.6594 7.64291 14.4795 7.79709 14.3767L17.896 7.9524Z" fill="white"/>
</svg>
