<svg width="21" height="18" viewBox="0 0 21 18" fill="none" xmlns="http://www.w3.org/2000/svg">
<path fill-rule="evenodd" clip-rule="evenodd" d="M15.6287 17.6228C16.8622 18.1625 17.3247 17.0318 17.3247 17.0318L20.5882 0.637028C20.5625 -0.467943 19.0721 0.200175 19.0721 0.200175L0.801421 7.36968C0.801421 7.36968 -0.0722791 7.67804 0.00481796 8.21769C0.0819062 8.75732 0.77573 9.01429 0.77573 9.01429L5.37551 10.5562C5.37551 10.5562 6.76316 15.1046 7.04583 15.9782C7.3028 16.8262 7.53408 16.8519 7.53408 16.8519C7.79105 16.9547 8.02232 16.7749 8.02232 16.7749L11.0032 14.0766L15.6287 17.6228ZM16.4254 3.54078C16.4254 3.54078 17.0679 3.15532 17.0422 3.54078C17.0422 3.54078 17.145 3.59218 16.8109 3.95194C16.5026 4.26029 9.23029 10.7874 8.2538 11.661C8.1767 11.7125 8.12532 11.7896 8.12532 11.8924L7.84264 14.3079C7.79125 14.5649 7.45719 14.5906 7.3801 14.3593L6.17233 10.4019C6.12094 10.2477 6.17233 10.0679 6.32651 9.96507L16.4254 3.54078Z" fill="white"/>
</svg>
