<svg width="20" height="15" viewBox="0 0 20 15" fill="none" xmlns="http://www.w3.org/2000/svg">
<path d="M17.1909 3.67054C17.1909 3.83632 17.1909 4.00209 17.1909 4.14418C17.1909 9.04613 13.2372 14.7059 6.03057 14.7059C3.80351 14.7059 1.75162 14.0901 0 13.0482C0.300279 13.0719 0.625574 13.0956 0.925853 13.0956C2.75254 13.0956 4.45412 12.5035 5.80535 11.509C4.07876 11.4853 2.62743 10.3959 2.15199 8.92772C2.40222 8.97509 2.62743 8.99876 2.90268 8.99876C3.253 8.99876 3.60332 8.95141 3.92863 8.85668C2.12697 8.52515 0.77572 7.03325 0.77572 5.2335C0.77572 5.20981 0.77572 5.20981 0.77572 5.18613C1.30121 5.47031 1.90175 5.63607 2.55235 5.65975C1.50138 4.99669 0.800735 3.86 0.800735 2.55754C0.800735 1.87079 1.00093 1.23141 1.32622 0.68675C3.253 2.93644 6.15568 4.40466 9.40869 4.57043C9.33362 4.30994 9.30859 4.00209 9.30859 3.71791C9.30859 1.65766 11.0602 0 13.2372 0C14.3632 0 15.3893 0.449941 16.0899 1.16037C16.9907 0.994603 17.8165 0.68675 18.5922 0.260485C18.2919 1.13669 17.6663 1.84712 16.8656 2.32074C17.6663 2.22601 18.4171 2.03656 19.1176 1.72871C18.6172 2.4865 17.9666 3.14957 17.1909 3.67054Z" fill="white"/>
</svg>
