<svg width="20" height="16" viewBox="0 0 20 16" fill="none" xmlns="http://www.w3.org/2000/svg">
<path d="M17.1909 4.61537C17.1909 4.78115 17.1909 4.94691 17.1909 5.089C17.1909 9.99096 13.2372 15.6507 6.03057 15.6507C3.80351 15.6507 1.75162 15.035 0 13.9931C0.300279 14.0167 0.625574 14.0404 0.925853 14.0404C2.75254 14.0404 4.45412 13.4484 5.80535 12.4538C4.07876 12.4301 2.62743 11.3407 2.15199 9.87255C2.40222 9.91991 2.62743 9.94359 2.90268 9.94359C3.253 9.94359 3.60332 9.89624 3.92863 9.8015C2.12697 9.46997 0.77572 7.97807 0.77572 6.17832C0.77572 6.15463 0.77572 6.15463 0.77572 6.13096C1.30121 6.41513 1.90175 6.5809 2.55235 6.60457C1.50138 5.94152 0.800735 4.80482 0.800735 3.50237C0.800735 2.81562 1.00093 2.17624 1.32622 1.63157C3.253 3.88127 6.15568 5.34949 9.40869 5.51525C9.33362 5.25477 9.30859 4.94691 9.30859 4.66274C9.30859 2.60249 11.0602 0.944824 13.2372 0.944824C14.3632 0.944824 15.3893 1.39477 16.0899 2.10519C16.9907 1.93943 17.8165 1.63157 18.5922 1.20531C18.2919 2.08152 17.6663 2.79194 16.8656 3.26556C17.6663 3.17084 18.4171 2.98138 19.1176 2.67353C18.6172 3.43132 17.9666 4.0944 17.1909 4.61537Z" fill="white"/>
</svg>
