<svg width="25" height="25" viewBox="0 0 25 25" fill="none" xmlns="http://www.w3.org/2000/svg">
<path d="M20.132 8.08216C20.132 8.24794 20.132 8.41371 20.132 8.5558C20.132 13.4578 16.1784 19.1175 8.97174 19.1175C6.74468 19.1175 4.69278 18.5018 2.94116 17.4599C3.24144 17.4835 3.56674 17.5072 3.86702 17.5072C5.69371 17.5072 7.39528 16.9152 8.74651 15.9206C7.01993 15.8969 5.56859 14.8075 5.09315 13.3393C5.34338 13.3867 5.56859 13.4104 5.84384 13.4104C6.19416 13.4104 6.54449 13.363 6.86979 13.2683C5.06813 12.9368 3.71688 11.4449 3.71688 9.64512C3.71688 9.62143 3.71688 9.62143 3.71688 9.59775C4.24237 9.88193 4.84291 10.0477 5.49352 10.0714C4.44254 9.40831 3.7419 8.27162 3.7419 6.96917C3.7419 6.28242 3.94209 5.64303 4.26738 5.09837C6.19416 7.34806 9.09684 8.81628 12.3499 8.98205C12.2748 8.72156 12.2498 8.41371 12.2498 8.12953C12.2498 6.06928 14.0014 4.41162 16.1784 4.41162C17.3044 4.41162 18.3304 4.86156 19.031 5.57199C19.9319 5.40622 20.7576 5.09837 21.5334 4.67211C21.2331 5.54831 20.6075 6.25874 19.8068 6.73236C20.6075 6.63764 21.3582 6.44818 22.0588 6.14033C21.5584 6.89812 20.9078 7.56119 20.132 8.08216Z" fill="white"/>
</svg>
