<svg width="21" height="19" viewBox="0 0 21 19" fill="none" xmlns="http://www.w3.org/2000/svg">
<path fill-rule="evenodd" clip-rule="evenodd" d="M20.1807 8.07194C20.4306 8.42844 20.5721 8.8496 20.5879 9.28466C20.5946 9.71051 20.4804 10.1296 20.259 10.4933C20.0373 10.8571 19.7175 11.1507 19.336 11.3403C19.3534 11.5666 19.3534 11.794 19.336 12.0203C19.336 15.4825 15.3021 18.2954 10.3253 18.2954C5.34847 18.2954 1.31448 15.4825 1.31448 12.0203C1.29708 11.794 1.29708 11.5666 1.31448 11.3403C1.0172 11.2037 0.753172 11.0041 0.540701 10.7554C0.328216 10.5066 0.172377 10.2146 0.0839656 9.89963C-0.00444618 9.58465 -0.0233139 9.25421 0.0286714 8.93121C0.0806567 8.60822 0.202245 8.30038 0.385024 8.02906C0.567804 7.75772 0.807407 7.52938 1.0872 7.35985C1.36699 7.19032 1.68032 7.08365 2.00544 7.04725C2.33055 7.01084 2.65972 7.04556 2.97008 7.14901C3.28045 7.25246 3.56461 7.42215 3.80288 7.64634C5.58382 6.4385 7.67903 5.77769 9.83067 5.74526L10.9744 0.382073C10.9872 0.319985 11.0123 0.261059 11.0481 0.20872C11.0838 0.156382 11.1297 0.111661 11.1829 0.0771613C11.2361 0.0426613 11.2956 0.0190584 11.358 0.00772018C11.4203 -0.00361806 11.4843 -0.00245622 11.5463 0.011132L15.3329 0.76847C15.5179 0.450749 15.81 0.209353 16.1569 0.0876027C16.5037 -0.0341473 16.8826 -0.0282797 17.2256 0.104147C17.5685 0.236588 17.8529 0.486911 18.0279 0.810206C18.2029 1.1335 18.2571 1.50857 18.1804 1.86812C18.1038 2.22765 17.9015 2.5481 17.6098 2.77196C17.3184 2.99581 16.9565 3.1084 16.5894 3.0895C16.2222 3.07062 15.8738 2.92148 15.6068 2.6689C15.3397 2.41631 15.1713 2.07678 15.1321 1.71128L11.8244 1.01576L10.8198 5.838C12.9453 5.88359 15.0122 6.54388 16.7703 7.73907C17.0844 7.43762 17.479 7.23346 17.9065 7.15119C18.334 7.06893 18.7762 7.11209 19.1797 7.27545C19.5832 7.43884 19.9309 7.71544 20.1807 8.07194ZM13.8409 12.3738C14.694 12.3738 15.3854 11.6823 15.3854 10.8292C15.3854 9.9762 14.694 9.28466 13.8409 9.28466C12.9878 9.28466 12.2963 9.9762 12.2963 10.8292C12.2963 11.6823 12.9878 12.3738 13.8409 12.3738ZM8.22602 10.8292C8.22602 11.6823 7.5345 12.3738 6.68144 12.3738C5.82839 12.3738 5.13686 11.6823 5.13686 10.8292C5.13686 9.9762 5.82839 9.28466 6.68144 9.28466C7.5345 9.28466 8.22602 9.9762 8.22602 10.8292ZM10.2935 15.4485H10.2859H10.2783C9.17666 15.4553 8.36208 15.2084 7.82894 14.9666C7.56036 14.8449 7.36214 14.7238 7.2341 14.636C7.17008 14.5922 7.12369 14.5566 7.09488 14.5335C7.08048 14.5219 7.07048 14.5135 7.06491 14.5087L7.06038 14.5047C6.89011 14.3494 6.62607 14.3609 6.46995 14.5307C6.31352 14.7009 6.3247 14.9657 6.49494 15.1222L6.49638 15.1235L6.49826 15.1251L6.50333 15.1297L6.51882 15.1432C6.53148 15.1541 6.54888 15.1688 6.571 15.1865C6.61522 15.2221 6.67841 15.2701 6.76063 15.3265C6.92501 15.4393 7.16575 15.5851 7.48319 15.7291C8.11652 16.0163 9.05113 16.2935 10.2859 16.2857C11.5207 16.2935 12.4553 16.0163 13.0887 15.7291C13.406 15.5851 13.6468 15.4393 13.8112 15.3265C13.8934 15.2701 13.9566 15.2221 14.0007 15.1865C14.0229 15.1688 14.0403 15.1541 14.0529 15.1432L14.0684 15.1297L14.0735 15.1251L14.0754 15.1235L14.0769 15.1222C14.2471 14.9657 14.2582 14.7009 14.1019 14.5307C13.9457 14.3609 13.6816 14.3494 13.5115 14.5047L13.5069 14.5087C13.5013 14.5135 13.4913 14.5219 13.4769 14.5335C13.4481 14.5566 13.4018 14.5922 13.3376 14.636C13.2097 14.7238 13.0115 14.8449 12.7428 14.9666C12.2097 15.2084 11.3951 15.4553 10.2935 15.4485Z" fill="white"/>
</svg>
