<svg width="25" height="25" viewBox="0 0 25 25" fill="none" xmlns="http://www.w3.org/2000/svg">
<path fill-rule="evenodd" clip-rule="evenodd" d="M21.2216 5.48591C22.1933 5.74756 22.9597 6.51381 23.2213 7.48565C23.7072 9.2611 23.6885 12.9615 23.6885 12.9615C23.6885 12.9615 23.6885 16.6432 23.2213 18.4187C22.9597 19.3906 22.1933 20.1568 21.2216 20.4185C19.4461 20.8857 12.3443 20.8857 12.3443 20.8857C12.3443 20.8857 5.2611 20.8857 3.46696 20.3997C2.49513 20.1381 1.72888 19.3719 1.46724 18.4C1 16.6432 1 12.9428 1 12.9428C1 12.9428 1 9.2611 1.46724 7.48565C1.72888 6.51381 2.51382 5.72887 3.46696 5.46722C5.24241 5 12.3443 5 12.3443 5C12.3443 5 19.4461 5 21.2216 5.48591ZM15.9885 12.9428L10.0827 16.3443V9.54143L15.9885 12.9428Z" fill="white"/>
</svg>
