<svg width="23" height="16" viewBox="0 0 23 16" fill="none" xmlns="http://www.w3.org/2000/svg">
<path fill-rule="evenodd" clip-rule="evenodd" d="M20.2216 0.485912C21.1933 0.747559 21.9597 1.51381 22.2213 2.48565C22.7072 4.2611 22.6885 7.96153 22.6885 7.96153C22.6885 7.96153 22.6885 11.6432 22.2213 13.4187C21.9597 14.3906 21.1933 15.1568 20.2216 15.4185C18.4461 15.8857 11.3443 15.8857 11.3443 15.8857C11.3443 15.8857 4.2611 15.8857 2.46696 15.3997C1.49513 15.1381 0.728882 14.3719 0.467235 13.4C8.76539e-08 11.6432 0 7.94284 0 7.94284C0 7.94284 8.76539e-08 4.2611 0.467235 2.48565C0.728882 1.51381 1.51382 0.728868 2.46696 0.46722C4.24241 -1.31481e-07 11.3443 0 11.3443 0C11.3443 0 18.4461 4.38269e-08 20.2216 0.485912ZM14.9885 7.94284L9.08272 11.3443V4.54143L14.9885 7.94284Z" fill="white"/>
</svg>
